<svg xmlns="http://www.w3.org/2000/svg" xmlns:xlink="http://www.w3.org/1999/xlink" width="183" height="41" viewBox="0 0 183 41">
    <defs>
        <path id="a" d="M0 0h178.818v35.274H0z"/>
    </defs>
    <g fill="none" fill-rule="evenodd" transform="translate(2 3)">
        <mask id="b" fill="#fff">
            <use xlink:href="#a"/>
        </mask>
        <path fill="#D80212" d="M170.026 18.813c-.49-.733-.645-.7-2.955-1.311a901.826 901.826 0 0 1-6.702-1.823c-1.496-.423-1.66-.658-1.797-1.826-.042-.38-.081-.948-.136-1.678-.051-.68.03-.874.625-1.205.383-.212 1.702-.972 2.258-1.271.688-.37 1.239-.213 2.073.12.426.169 1.782.74 2.293.953.474.198.468.349 1.035 1.469.265.524.717.432 1.052.284.358-.156 2.048-1.054 2.4-1.25.669-.376.803-.662.558-1.013-.343-.49-.41-.552-.66-.896-.275-.373-.482-.61-1-1.241-.59-.72-.52-.654-1.756-.908-.867-.18-4.358-.894-5.404-1.097-.591-.114-.908-.031-1.506.224-.598.258-2.998 1.333-3.636 1.63-1.494.705-1.754.716-1.941 1.07-.265.507-.157.26-.84 1.606-.797 1.589-1.017 1.89-.858 2.434.278.944.852 2.383 1.325 3.734.485 1.382.514 1.567 3.319 2.31 1.618.429 6.519 1.718 7.112 1.917.964.322 1.078.475 1.486 1.364.18.395.426 1.024.56 1.366.229.578.532 1.144.408 1.865-.154.894-1.071 1.144-1.571 1.423-.598.332-1.917.99-2.626 1.313-.923.416-1.045.537-2.3-.073-1.081-.525-1.407-.726-2.157-1.11-.464-.236-.423-.175-.793-.593-.32-.355-.816-.862-1.201-1.334-.558-.68-1.01-.502-1.641-.186-.511.255-2.351 1.212-2.82 1.47-.437.237-.434.657-.157.93a74.116 74.116 0 0 0 2.118 1.983c.807.73 1.439 1.297 2.159 1.49 1.43.387 3.859 1.02 5.498 1.442 1.976.506 1.51.377 3.212-.3.589-.234 3.834-1.547 4.604-1.931.923-.462 1.047-.588 1.488-2.131.22-.757.824-2.9 1.026-3.625.243-.874.3-1.56-.168-2.346-.257-.426-1.557-2.61-1.984-3.25zm-83.401-4.69c-1.063.012-2.658.03-3.241.03-.902 0-1.278.25-1.27 1.24.01.82.03 11.339.038 14.924.002.743.433 1.194 1.098 1.212.672.018.842.009 1.685.034.842.027 1.227-.418 1.293-1.16.32-3.695 1.282-14.771 1.327-15.268.05-.597-.337-1.02-.93-1.012zm-1.603-8.3a3.18 3.18 0 1 0-.002 6.36 3.18 3.18 0 0 0 .002-6.36zm60.136 19.767c-.287.148-2.402 1.233-3.561 1.826-.452.233-1.08.24-1.513.027-.298-.147-1.278-.663-1.828-.931-.466-.221-.73-.704-.822-1.312-.048-.335-.156-2.205-.22-3.325-.056-.427.08-1.124.519-1.474.235-.19 1.15-.675 1.629-.945.63-.358 1.387-.651 1.825-.82.643-.251 1.236-.188 2.515.158.323.086 1.349.352 1.567.49.376.27.422.704.424 1.019 0 .224.009 3.157.01 4.25.003.447-.146.83-.545 1.037zm7.098 4.164c-.638-.558-1.534-1.28-1.916-1.633-.186-.173-.292-.363-.267-.652l1.345-14.364c.1-1.094-.198-1.894-1.028-2.776-.86-.917-1.824-1.952-1.982-2.112-.853-.843-2.014-1.282-3.327-1.285-1.731-.008-4.646-.123-4.915-.13-1.178-.025-1.942.148-3.001.81-.914.57-2.01 1.266-2.201 1.397-.64.452-1.004.917-1.12 1.598-.181 1.066-.477 2.773-.515 3.028-.114.768.202 1.095.84 1.06.219-.011 2.06-.134 3.115-.195.64-.035.94-.214 1.199-.987.064-.188.618-1.783.92-2.647.228-.605.498-.775 1.03-.868a39.941 39.941 0 0 1 1.853-.27c.554-.066.908-.007 1.368.292.192.126 1.358.94 1.51 1.049.203.142.593.55.595 1.135 0 .234.05 3.624.05 3.624s-.012.572-.692.352c-.966-.313-3.442-1.16-4.536-.942-.726.145-1.978.616-2.338.772a68.73 68.73 0 0 0-3.075 1.417c-1.26.62-1.676 1.013-1.881 1.197-.778.708-.812 1.66-.868 2.54-.088 1.426-.301 4.532-.292 4.762.034 1.06.382 1.987 1.328 2.704 1.292.982 3.029 2.272 3.303 2.484.873.67 2.526.68 3.286.293 1.675-.853 5.228-2.685 5.303-2.726.092-.051.22-.042.273.135.038.114.062.198.088.294.046.174.2.399.379.548.79.66 2.434 2.069 2.543 2.16.568.486 1.122.48 1.627.205 1.262-.683 1.936-1.107 2.038-1.164.608-.336.426-.701-.04-1.105zm-25.36-20.912c-.51-.553-1.165-.701-1.84-.701-1.463 0-3.483.109-4.22.153-1.12.066-1.622.344-2.141.95-.548.639-1.332 1.477-1.47 1.6-.743.673-.821.398-.79-.358.015-.444.13-1.73.175-2.286.077-.983-.544-1.227-1.348-1.235-.963-.007-2.138-.016-2.64-.016-1.573 0-1.876-.03-1.876 1.867 0 1.397.067 15.973.075 20.445 0 .837.532 1.32 1.104 1.32.572 0 1.974-.021 2.397-.021.426 0 .906-.522.964-1.351.243-3.522.848-13.081.903-13.653.065-.712.386-1.237.81-1.57.759-.598 1.784-1.342 2.114-1.646.364-.33.779-.433 1.27-.433.806 0 1.34.022 1.86.046.426.016.759.085 1.127.3.41.242.997.95 1.189 1.147.333.34.497.485.497 1.126 0 3.164.245 13.898.245 14.655 0 .905.332 1.36.814 1.38.674.028 1.596.02 1.917.02.557 0 .882-.386.96-1.083.38-3.275 1.25-13.312 1.367-14.41.195-1.84-.13-2.228-1.018-3.332-.957-1.191-1.775-2.186-2.444-2.914zm-24.072 15.524c-.024.75-.04 1.226-.607 1.482-.291.13-2.12 1.102-3.246 1.694-.548.289-1.17.427-1.874.077-.658-.33-.914-.41-1.721-.885a1.676 1.676 0 0 1-.894-1.415c-.048-.766-.17-2.628-.205-3.32-.033-.682.15-1.174.984-1.691.377-.23 1.968-1.017 2.503-1.273.668-.32 1.624-.356 2.008-.277.326.067 1.884.505 2.416.662.482.143.649.715.636 1.182-.024.874.009 3.407 0 3.764zm17.975 3.345a53.986 53.986 0 0 0-2.12.135c-.677.067-1.072.195-1.238 1.393-.191 1.363-.098 2.169-1.366 2.715-1.25.537-1.672.619-2.284.689-1.098.129-1.381.168-2.423-.044-1.422-.295-1.977-.732-2.727-1.993-.186-.303-.647-1.05-1.078-2.248-.074-.198-.205-.736-.188-1.025.155-2.538.5-13.862.518-14.168.06-1.088.219-1.938-.627-2.812-.88-.915-1.903-1.995-2.065-2.153-.798-.771-1.581-1.017-2.961-1.021-1.712-.005-5.077-.11-5.343-.117-1.166-.026-1.06-.056-2.137.519-1.041.553-2.46 1.628-2.862 1.856-.663.375-.883.856-.975 1.533-.128.926-.426 1.97-.54 2.957-.087.766.232 1.089.864 1.055.215-.012 2.03-.134 3.069-.196.632-.035.992-.19 1.225-.958.055-.186.6-1.607.874-2.466.199-.6.53-1.018 1.06-1.09.862-.118 1.03-.185 1.576-.251 1.044-.125 1.237-.011 1.576.167.205.105.87.597 1.506 1.01.423.277.77.575.742 1.436-.008.229.078 2.196.043 2.564-.03.369.248 1.344-.46 1.256-.867-.104-1.798-.68-3.556-.916-.295-.042-.993-.155-1.567.03-.835.274-2.29.839-2.46.91-1.373.587-1.653.75-3.422 1.646-1.162.587-1.716 1.289-1.864 2.556-.167 1.43-.317 5.062-.33 5.292-.081 1.268.486 2.288 1.443 3 1.31.975 2.773 2.083 3.132 2.338.866.618 2.269.884 3.435.274 1.629-.847 4.888-2.477 4.96-2.521.088-.05.397-.276.458-.103.04.114.18.48.205.575.053.173.278.39.44.553.839.848 1.517 1.588 2.18 2.279 1.553 1.617 1.768 1.752 3.652 2.196 2.04.48 2.176.513 2.569.583.39.068.713.314 3.64-.133 2.928-.451 3.11-.517 3.415-.571.304-.051 1.487-.153 1.97-2.111.482-1.957.749-3.051.818-3.463.067-.41.447-1.22-.777-1.157zm54.883-15.616c-1.53 0-2.47-1.194-2.47-2.648 0-1.561 1.082-2.65 2.47-2.65 1.37 0 2.45 1.089 2.45 2.65 0 1.568-1.08 2.648-2.45 2.648zm0-5.854c-1.698 0-3.155 1.278-3.155 3.206 0 1.825 1.312 3.203 3.155 3.203 1.678 0 3.136-1.274 3.136-3.203 0-1.928-1.458-3.206-3.136-3.206zM16.962 9.557c-.722-.977-1.074-1.018-2.484-1.014-.247 0-3.08.035-4.148.072-1.07.039-1.826.288-2.48.83-.408.338-1.358 1.525-1.47 1.645-.08.087-.24.373-.413.339-.195-.041-.2-.23-.171-.56.128-1.508.523-7.714.638-9.68.06-.67-.23-1.19-.984-1.19-.295 0-3.198.097-4.407.097C.385.096-.01.559 0 1.198c.004.308.338 25.033.393 28.969.004.33.195.512.552.506.276-.004 2.292-.023 3.205-.034.275 0 .467-.212.467-.407 0-.165.61-9.92.768-13.24.045-1.16.454-2.596.954-3.005a58.948 58.948 0 0 1 2.048-1.58c.466-.336.812-.346 1.195-.346.529-.003 1.422.02 1.872.033.595.018.603.07 1.102.419.247.175.603.43.914.669.515.389.754.71.745 1.446-.003.154.308 11.86.36 14.729 0 .788.128 1.387.928 1.387.207 0 1.428.012 2.247.012.753 0 .806-.618.865-1.31.015-.191.608-11.83.877-14.824.1-1.258-.125-1.867-.723-2.692-.144-.202-1.05-1.36-1.807-2.373zm158.086-.29V8.229h.703c.349 0 .77.05.77.48 0 .514-.385.558-.822.558h-.651zm2.054-.516c0-.72-.435-1.021-1.29-1.021h-1.348v3.55h.584V9.763h.548l.917 1.517h.659l-.993-1.561c.53-.06.923-.325.923-.968zM73.167 25.584c-.287.15-2.4 1.234-3.56 1.825-.453.235-1.08.242-1.511.029-.302-.15-1.278-.666-1.83-.93-.465-.223-.731-.705-.821-1.313-.05-.337-.154-2.21-.222-3.326-.057-.427.082-1.125.519-1.474.235-.19 1.154-.677 1.629-.946.632-.358 1.39-.651 1.825-.82.643-.252 1.239-.185 2.515.157.323.089 1.35.352 1.57.49.375.272.42.707.42 1.022l.013 4.248c.002.446-.146.83-.547 1.038zm7.098 4.162c-.636-.557-1.531-1.278-1.915-1.63-.185-.172-.293-.365-.264-.654.24-2.552 1.316-14.058 1.342-14.364.1-1.095-.197-1.892-1.027-2.776-.861-.914-1.826-1.95-1.984-2.11-.85-.844-2.014-1.282-3.327-1.288-1.731-.005-4.646-.122-4.914-.127-1.177-.027-1.942.147-3.003.809-.913.574-2.008 1.266-2.198 1.399-.64.45-1.005.917-1.121 1.595-.181 1.066-.475 2.774-.514 3.029-.116.769.2 1.095.839 1.06.216-.011 2.059-.131 3.115-.194.64-.037.94-.214 1.2-.99.062-.186.618-1.78.922-2.646.224-.605.494-.775 1.027-.866a44.988 44.988 0 0 1 1.852-.272c.554-.066.908-.006 1.368.293.195.123 1.36.939 1.51 1.047.204.145.593.553.593 1.137.002.232.054 3.624.054 3.624s-.014.574-.694.352c-.967-.313-3.441-1.158-4.536-.941-.726.143-1.977.614-2.337.769-.76.328-1.885.832-3.077 1.418-1.255.62-1.675 1.013-1.88 1.2-.777.706-.812 1.656-.866 2.537-.088 1.427-.302 4.532-.294 4.764.036 1.06.383 1.986 1.328 2.702 1.294.98 3.028 2.274 3.304 2.484.872.67 2.526.68 3.285.294a832.519 832.519 0 0 0 5.304-2.727c.09-.05.219-.04.275.136.036.115.06.197.086.294.045.176.202.398.378.546.792.663 2.434 2.07 2.543 2.163.568.485 1.122.477 1.627.203 1.262-.683 1.935-1.106 2.04-1.163.606-.337.424-.701-.041-1.107zm-46.04-4.154c-.287.149-2.4 1.23-3.558 1.826-.454.233-1.078.239-1.513.027-.3-.15-1.278-.664-1.83-.93-.464-.223-.731-.704-.821-1.314-.05-.335-.156-2.206-.222-3.324-.056-.427.082-1.123.518-1.476.239-.19 1.156-.675 1.63-.945.632-.356 1.39-.65 1.825-.818.646-.251 1.239-.187 2.517.156.322.087 1.35.354 1.566.49.376.273.422.707.424 1.02l.013 4.25c0 .447-.147.83-.548 1.038zm7.1 4.163c-.637-.557-1.532-1.278-1.917-1.633-.186-.171-.29-.362-.264-.652.24-2.553 1.316-14.057 1.342-14.365.1-1.094-.197-1.892-1.026-2.774-.862-.918-1.826-1.952-1.986-2.111-.85-.845-2.012-1.282-3.325-1.288-1.731-.006-4.643-.123-4.914-.128-1.18-.026-1.941.149-3.002.81-.915.57-2.01 1.266-2.2 1.398-.64.45-1.005.916-1.121 1.597-.181 1.066-.475 2.773-.513 3.026-.117.77.199 1.097.84 1.063.217-.013 2.06-.134 3.112-.196.642-.036.943-.214 1.202-.988.062-.19.618-1.782.922-2.648.223-.604.495-.774 1.026-.866.717-.127 1.668-.248 1.854-.272.552-.064.907-.007 1.367.293.194.125 1.36.94 1.51 1.049.204.143.59.552.594 1.135 0 .234.053 3.625.053 3.625s-.014.572-.695.353c-.966-.315-3.44-1.16-4.536-.944-.724.144-1.975.615-2.336.77-.76.329-1.885.833-3.075 1.419-1.26.62-1.677 1.014-1.882 1.199-.778.709-.811 1.657-.866 2.538-.088 1.427-.301 4.533-.295 4.762.036 1.06.383 1.988 1.328 2.704 1.295.98 3.029 2.272 3.305 2.484.87.67 2.524.679 3.285.293a915.53 915.53 0 0 0 5.306-2.727c.088-.05.218-.04.273.137.037.114.06.196.087.293.043.176.2.398.376.547.79.662 2.437 2.072 2.543 2.162.568.484 1.124.479 1.63.203 1.26-.683 1.933-1.106 2.038-1.161.608-.34.424-.702-.04-1.107zM59.499 7.01c-.493-.015-1.512 0-2.127.025-.611.022-1.152.45-1.302.96-1.036 3.517-4.741 16.189-4.896 16.659-.18.549-.596.503-.691.039-.095-.463-2.9-16.228-2.998-16.668-.123-.534-.282-.936-1.246-.964-1.152-.037-2.9-.074-3.47-.083-.884-.011-1.428.182-1.216.973.182.688 4.39 17.499 5.489 21.895.166.664.869.973 1.54.89a31.545 31.545 0 0 0 1.543-.22c.703-.124 1.28-.068 1.954.089a26 26 0 0 0 .827.178c.463.095 1.044-.43 1.217-1.065.149-.544 4.85-16.883 6.106-21.257.238-.816-.09-1.428-.73-1.451z" mask="url(#b)"/>
    </g>
</svg>